<svg xmlns="http://www.w3.org/2000/svg" viewBox="0 0 3748.5 862.55" width="3748.5" height="862.55" style="--bg:#1a1b26;--fg:#a9b1d6;--line:#3d59a1;--accent:#7aa2f7;--muted:#565f89;background:var(--bg)">
<style>
  @import url('https://fonts.googleapis.com/css2?family=Inter:wght@400;500;600;700&amp;display=swap');
  text { font-family: 'Inter', system-ui, sans-serif; }
  svg {
    /* Derived from --bg and --fg (overridable via --line, --accent, etc.) */
    --_text:          var(--fg);
    --_text-sec:      var(--muted, color-mix(in srgb, var(--fg) 60%, var(--bg)));
    --_text-muted:    var(--muted, color-mix(in srgb, var(--fg) 40%, var(--bg)));
    --_text-faint:    color-mix(in srgb, var(--fg) 25%, var(--bg));
    --_line:          var(--line, color-mix(in srgb, var(--fg) 30%, var(--bg)));
    --_arrow:         var(--accent, color-mix(in srgb, var(--fg) 50%, var(--bg)));
    --_node-fill:     var(--surface, color-mix(in srgb, var(--fg) 3%, var(--bg)));
    --_node-stroke:   var(--border, color-mix(in srgb, var(--fg) 20%, var(--bg)));
    --_group-fill:    var(--bg);
    --_group-hdr:     color-mix(in srgb, var(--fg) 5%, var(--bg));
    --_inner-stroke:  color-mix(in srgb, var(--fg) 12%, var(--bg));
    --_key-badge:     color-mix(in srgb, var(--fg) 10%, var(--bg));
  }
</style>
<defs>
  <marker id="arrowhead" markerWidth="8" markerHeight="4.8" refX="8" refY="2.4" orient="auto">
    <polygon points="0 0, 8 2.4, 0 4.8" fill="var(--_arrow)" />
  </marker>
  <marker id="arrowhead-start" markerWidth="8" markerHeight="4.8" refX="0" refY="2.4" orient="auto-start-reverse">
    <polygon points="8 0, 0 2.4, 8 4.8" fill="var(--_arrow)" />
  </marker>
</defs>
<rect x="196.35000000000036" y="348" width="3512.1499999999996" height="474.54999999999995" rx="0" ry="0" fill="var(--_group-fill)" stroke="var(--_node-stroke)" stroke-width="1" />
<rect x="196.35000000000036" y="348" width="3512.1499999999996" height="28" rx="0" ry="0" fill="var(--_group-hdr)" stroke="var(--_node-stroke)" stroke-width="1" />
<text x="208.35000000000036" y="362" dy="0.35em" font-size="12" font-weight="600" fill="var(--_text-sec)">&quot;FullScreenExplore · 3-Panel Grid&quot;</text>
<rect x="212.35000000000036" y="384" width="796.9499999999998" height="253.55" rx="0" ry="0" fill="var(--_group-fill)" stroke="var(--_node-stroke)" stroke-width="1" />
<rect x="212.35000000000036" y="384" width="796.9499999999998" height="28" rx="0" ry="0" fill="var(--_group-hdr)" stroke="var(--_node-stroke)" stroke-width="1" />
<text x="224.35000000000036" y="398" dy="0.35em" font-size="12" font-weight="600" fill="var(--_text-sec)">&quot;Left Panel&quot;</text>
<rect x="1029.3000000000002" y="384" width="1302.2" height="426.55" rx="0" ry="0" fill="var(--_group-fill)" stroke="var(--_node-stroke)" stroke-width="1" />
<rect x="1029.3000000000002" y="384" width="1302.2" height="28" rx="0" ry="0" fill="var(--_group-hdr)" stroke="var(--_node-stroke)" stroke-width="1" />
<text x="1041.3000000000002" y="398" dy="0.35em" font-size="12" font-weight="600" fill="var(--_text-sec)">&quot;Center Panel&quot;</text>
<rect x="2351.5000000000005" y="384" width="1301.0000000000002" height="426.55" rx="0" ry="0" fill="var(--_group-fill)" stroke="var(--_node-stroke)" stroke-width="1" />
<rect x="2351.5000000000005" y="384" width="1301.0000000000002" height="28" rx="0" ry="0" fill="var(--_group-hdr)" stroke="var(--_node-stroke)" stroke-width="1" />
<text x="2363.5000000000005" y="398" dy="0.35em" font-size="12" font-weight="600" fill="var(--_text-sec)">&quot;Right Panel · Sidebar&quot;</text>
<rect x="1168.4500000000003" y="196" width="1047.2" height="112" rx="0" ry="0" fill="var(--_group-fill)" stroke="var(--_node-stroke)" stroke-width="1" />
<rect x="1168.4500000000003" y="196" width="1047.2" height="28" rx="0" ry="0" fill="var(--_group-hdr)" stroke="var(--_node-stroke)" stroke-width="1" />
<text x="1180.4500000000003" y="210" dy="0.35em" font-size="12" font-weight="600" fill="var(--_text-sec)">&quot;React Contexts&quot;</text>
<rect x="40" y="40" width="1490.45" height="112" rx="0" ry="0" fill="var(--_group-fill)" stroke="var(--_node-stroke)" stroke-width="1" />
<rect x="40" y="40" width="1490.45" height="28" rx="0" ry="0" fill="var(--_group-hdr)" stroke="var(--_node-stroke)" stroke-width="1" />
<text x="52" y="54" dy="0.35em" font-size="12" font-weight="600" fill="var(--_text-sec)">&quot;Custom Hooks&quot;</text>
<polyline points="1952.4250000000002,288 1952.4250000000002,408" fill="none" stroke="var(--_line)" stroke-width="0.75" marker-end="url(#arrowhead)" />
<polyline points="1438.8249999999998,132 1438.8249999999998,252" fill="none" stroke="var(--_line)" stroke-width="0.75" marker-end="url(#arrowhead)" />
<polyline points="1730.4500000000003,546.775 1730.4500000000003,637.55 1231.75,637.55 1231.75,754.55" fill="none" stroke="var(--_line)" stroke-width="0.75" marker-end="url(#arrowhead)" />
<polyline points="1730.4500000000003,546.775 1730.4500000000003,637.55 1588.0500000000002,637.55 1588.0500000000002,754.55" fill="none" stroke="var(--_line)" stroke-width="0.75" marker-end="url(#arrowhead)" />
<polyline points="1730.4500000000003,546.775 1730.4500000000003,637.55 1872.8500000000004,637.55 1872.8500000000004,754.55" fill="none" stroke="var(--_line)" stroke-width="0.75" marker-end="url(#arrowhead)" />
<polyline points="1730.4500000000003,546.775 1730.4500000000003,637.55 2157.6500000000005,637.55 2157.6500000000005,754.55" fill="none" stroke="var(--_line)" stroke-width="0.75" marker-end="url(#arrowhead)" />
<polyline points="2923.8847530864205,543.0097530864198 2923.8847530864205,637.55 2428.8250000000003,637.55 2428.8250000000003,754.55" fill="none" stroke="var(--_line)" stroke-width="0.75" marker-end="url(#arrowhead)" />
<polyline points="2931.243248266995,550.3682482669947 2931.243248266995,637.55 2660.0000000000005,637.55 2660.0000000000005,754.55" fill="none" stroke="var(--_line)" stroke-width="0.75" marker-end="url(#arrowhead)" />
<polyline points="2998.4250000000006,617.55 2998.4250000000006,754.55" fill="none" stroke="var(--_line)" stroke-width="0.75" marker-end="url(#arrowhead)" />
<polyline points="3063.1024252916595,552.8725747083411 3063.1024252916595,637.55 3290.3750000000005,637.55 3290.3750000000005,754.55" fill="none" stroke="var(--_line)" stroke-width="0.75" marker-end="url(#arrowhead)" />
<polyline points="3072.00427927928,543.9707207207207 3072.00427927928,637.55 3525.1250000000005,637.55 3525.1250000000005,754.55" fill="none" stroke="var(--_line)" stroke-width="0.75" marker-end="url(#arrowhead)" />
<rect x="2395.0850000000005" y="672.55" width="67.48" height="27" rx="4" ry="4" fill="var(--bg)" stroke="var(--_inner-stroke)" stroke-width="0.5" />
<text x="2428.8250000000003" y="686.05" text-anchor="middle" dy="0.35em" font-size="11" font-weight="400" fill="var(--_text-muted)">collapsed</text>
<rect x="2634.8400000000006" y="672.55" width="50.32" height="27" rx="4" ry="4" fill="var(--bg)" stroke="var(--_inner-stroke)" stroke-width="0.5" />
<text x="2660.0000000000005" y="686.05" text-anchor="middle" dy="0.35em" font-size="11" font-weight="400" fill="var(--_text-muted)">normal</text>
<rect x="2967.5450000000005" y="672.55" width="61.760000000000005" height="27" rx="4" ry="4" fill="var(--bg)" stroke="var(--_inner-stroke)" stroke-width="0.5" />
<text x="2998.4250000000006" y="686.05" text-anchor="middle" dy="0.35em" font-size="11" font-weight="400" fill="var(--_text-muted)">expanded</text>
<rect x="3265.2150000000006" y="672.55" width="50.32" height="27" rx="4" ry="4" fill="var(--bg)" stroke="var(--_inner-stroke)" stroke-width="0.5" />
<text x="3290.3750000000005" y="686.05" text-anchor="middle" dy="0.35em" font-size="11" font-weight="400" fill="var(--_text-muted)">thread</text>
<rect x="3499.9650000000006" y="672.55" width="50.32" height="27" rx="4" ry="4" fill="var(--bg)" stroke="var(--_inner-stroke)" stroke-width="0.5" />
<text x="3525.1250000000005" y="686.05" text-anchor="middle" dy="0.35em" font-size="11" font-weight="400" fill="var(--_text-muted)">quotes</text>
<rect x="1190.4499999999998" y="252" width="496.75000000000006" height="36" rx="0" ry="0" fill="var(--_node-fill)" stroke="var(--_node-stroke)" stroke-width="0.75" />
<rect x="1711.2000000000003" y="252" width="482.45000000000005" height="36" rx="0" ry="0" fill="var(--_node-fill)" stroke="var(--_node-stroke)" stroke-width="0.75" />
<rect x="61.9999999999999" y="96" width="160.70000000000002" height="36" rx="0" ry="0" fill="var(--_node-fill)" stroke="var(--_node-stroke)" stroke-width="0.75" />
<rect x="246.6999999999999" y="96" width="225.05" height="36" rx="0" ry="0" fill="var(--_node-fill)" stroke="var(--_node-stroke)" stroke-width="0.75" />
<rect x="495.7499999999999" y="96" width="160.70000000000002" height="36" rx="0" ry="0" fill="var(--_node-fill)" stroke="var(--_node-stroke)" stroke-width="0.75" />
<rect x="680.4499999999999" y="96" width="153.55" height="36" rx="0" ry="0" fill="var(--_node-fill)" stroke="var(--_node-stroke)" stroke-width="0.75" />
<rect x="857.9999999999999" y="96" width="153.55" height="36" rx="0" ry="0" fill="var(--_node-fill)" stroke="var(--_node-stroke)" stroke-width="0.75" />
<rect x="1035.5499999999997" y="96" width="153.55" height="36" rx="0" ry="0" fill="var(--_node-fill)" stroke="var(--_node-stroke)" stroke-width="0.75" />
<rect x="1213.1000000000001" y="96" width="132.10000000000002" height="36" rx="0" ry="0" fill="var(--_node-fill)" stroke="var(--_node-stroke)" stroke-width="0.75" />
<rect x="1369.1999999999998" y="96" width="139.25" height="36" rx="0" ry="0" fill="var(--_node-fill)" stroke="var(--_node-stroke)" stroke-width="0.75" />
<rect x="234.35000000000016" y="510.775" width="432.40000000000003" height="36" rx="0" ry="0" fill="var(--_node-fill)" stroke="var(--_node-stroke)" stroke-width="0.75" />
<rect x="690.7500000000006" y="510.775" width="296.55" height="36" rx="0" ry="0" fill="var(--_node-fill)" stroke="var(--_node-stroke)" stroke-width="0.75" />
<rect x="1646.5250000000003" y="510.775" width="167.85000000000002" height="36" rx="0" ry="0" fill="var(--_node-fill)" stroke="var(--_node-stroke)" stroke-width="0.75" />
<rect x="1051.3" y="754.55" width="360.90000000000003" height="36" rx="0" ry="0" fill="var(--_node-fill)" stroke="var(--_node-stroke)" stroke-width="0.75" />
<rect x="1436.2000000000003" y="754.55" width="303.70000000000005" height="36" rx="0" ry="0" fill="var(--_node-fill)" stroke="var(--_node-stroke)" stroke-width="0.75" />
<rect x="1763.9000000000003" y="754.55" width="217.9" height="36" rx="0" ry="0" fill="var(--_node-fill)" stroke="var(--_node-stroke)" stroke-width="0.75" />
<rect x="2005.8000000000002" y="754.55" width="303.70000000000005" height="36" rx="0" ry="0" fill="var(--_node-fill)" stroke="var(--_node-stroke)" stroke-width="0.75" />
<polygon points="2998.4250000000006,440 3087.2000000000007,528.775 2998.4250000000006,617.55 2909.6500000000005,528.775" fill="var(--_node-fill)" stroke="var(--_node-stroke)" stroke-width="0.75" />
<rect x="2373.5000000000005" y="754.55" width="110.65" height="36" rx="0" ry="0" fill="var(--_node-fill)" stroke="var(--_node-stroke)" stroke-width="0.75" />
<rect x="2508.1500000000005" y="754.55" width="303.70000000000005" height="36" rx="0" ry="0" fill="var(--_node-fill)" stroke="var(--_node-stroke)" stroke-width="0.75" />
<rect x="2835.850000000001" y="754.55" width="325.15000000000003" height="36" rx="0" ry="0" fill="var(--_node-fill)" stroke="var(--_node-stroke)" stroke-width="0.75" />
<rect x="3185.0000000000005" y="754.55" width="210.75000000000003" height="36" rx="0" ry="0" fill="var(--_node-fill)" stroke="var(--_node-stroke)" stroke-width="0.75" />
<rect x="3419.7500000000005" y="754.55" width="210.75000000000003" height="36" rx="0" ry="0" fill="var(--_node-fill)" stroke="var(--_node-stroke)" stroke-width="0.75" />
<text x="1438.8249999999998" y="270" text-anchor="middle" dy="0.35em" font-size="13" font-weight="500" fill="var(--_text)">&quot;ScopeContext\nscopeRows · clusterMap\nclusterLabels · hierarchy&quot;</text>
<text x="1952.4250000000002" y="270" text-anchor="middle" dy="0.35em" font-size="13" font-weight="500" fill="var(--_text)">&quot;FilterContext\nfilteredIndices · page\nfilterConfig · loading&quot;</text>
<text x="142.3499999999999" y="114" text-anchor="middle" dy="0.35em" font-size="13" font-weight="500" fill="var(--_text)">&quot;useClusterFilter&quot;</text>
<text x="359.2249999999999" y="114" text-anchor="middle" dy="0.35em" font-size="13" font-weight="500" fill="var(--_text)">&quot;useNearestNeighborsSearch&quot;</text>
<text x="576.0999999999999" y="114" text-anchor="middle" dy="0.35em" font-size="13" font-weight="500" fill="var(--_text)">&quot;useFeatureFilter&quot;</text>
<text x="757.2249999999999" y="114" text-anchor="middle" dy="0.35em" font-size="13" font-weight="500" fill="var(--_text)">&quot;useColumnFilter&quot;</text>
<text x="934.7749999999999" y="114" text-anchor="middle" dy="0.35em" font-size="13" font-weight="500" fill="var(--_text)">&quot;useCarouselData&quot;</text>
<text x="1112.3249999999998" y="114" text-anchor="middle" dy="0.35em" font-size="13" font-weight="500" fill="var(--_text)">&quot;useTimelineData&quot;</text>
<text x="1279.15" y="114" text-anchor="middle" dy="0.35em" font-size="13" font-weight="500" fill="var(--_text)">&quot;useNodeStats&quot;</text>
<text x="1438.8249999999998" y="114" text-anchor="middle" dy="0.35em" font-size="13" font-weight="500" fill="var(--_text)">&quot;useThreadData&quot;</text>
<text x="450.5500000000002" y="528.775" text-anchor="middle" dy="0.35em" font-size="13" font-weight="500" fill="var(--_text)">&quot;TopicTree\nHierarchical clusters\nsorted by engagement&quot;</text>
<text x="839.0250000000005" y="528.775" text-anchor="middle" dy="0.35em" font-size="13" font-weight="500" fill="var(--_text)">&quot;TimelineControls\nDate range filter&quot;</text>
<text x="1730.4500000000003" y="528.775" text-anchor="middle" dy="0.35em" font-size="13" font-weight="500" fill="var(--_text)">&quot;VisualizationPane&quot;</text>
<text x="1231.75" y="772.55" text-anchor="middle" dy="0.35em" font-size="13" font-weight="500" fill="var(--_text)">&quot;DeckGLScatter\nScatterplotLayer\n+ TextLayer&quot;</text>
<text x="1588.0500000000002" y="772.55" text-anchor="middle" dy="0.35em" font-size="13" font-weight="500" fill="var(--_text)">&quot;HullPlot\nConvex cluster\nboundaries&quot;</text>
<text x="1872.8500000000004" y="772.55" text-anchor="middle" dy="0.35em" font-size="13" font-weight="500" fill="var(--_text)">&quot;HoverCard\nPoint preview&quot;</text>
<text x="2157.65" y="772.55" text-anchor="middle" dy="0.35em" font-size="13" font-weight="500" fill="var(--_text)">&quot;ConnectionBadges\nThread/reply edges&quot;</text>
<text x="2998.4250000000006" y="528.775" text-anchor="middle" dy="0.35em" font-size="13" font-weight="500" fill="var(--_text)">&quot;useSidebarState&quot;</text>
<text x="2428.8250000000003" y="772.55" text-anchor="middle" dy="0.35em" font-size="13" font-weight="500" fill="var(--_text)">&quot;Minimized&quot;</text>
<text x="2660.0000000000005" y="772.55" text-anchor="middle" dy="0.35em" font-size="13" font-weight="500" fill="var(--_text)">&quot;TweetFeed\nFiltered cards\npaginated&quot;</text>
<text x="2998.4250000000006" y="772.55" text-anchor="middle" dy="0.35em" font-size="13" font-weight="500" fill="var(--_text)">&quot;FeedCarousel\nMulti-column\nper-cluster&quot;</text>
<text x="3290.3750000000005" y="772.55" text-anchor="middle" dy="0.35em" font-size="13" font-weight="500" fill="var(--_text)">&quot;ThreadView\nReply chain&quot;</text>
<text x="3525.1250000000005" y="772.55" text-anchor="middle" dy="0.35em" font-size="13" font-weight="500" fill="var(--_text)">&quot;QuoteView\nQuote tweets&quot;</text>
</svg>