<svg xmlns="http://www.w3.org/2000/svg" viewBox="0 0 2117.425 1489" width="2117.425" height="1489" style="--bg:#1a1b26;--fg:#a9b1d6;--line:#3d59a1;--accent:#7aa2f7;--muted:#565f89;background:var(--bg)">
<style>
  @import url('https://fonts.googleapis.com/css2?family=Inter:wght@400;500;600;700&amp;display=swap');
  text { font-family: 'Inter', system-ui, sans-serif; }
  svg {
    /* Derived from --bg and --fg (overridable via --line, --accent, etc.) */
    --_text:          var(--fg);
    --_text-sec:      var(--muted, color-mix(in srgb, var(--fg) 60%, var(--bg)));
    --_text-muted:    var(--muted, color-mix(in srgb, var(--fg) 40%, var(--bg)));
    --_text-faint:    color-mix(in srgb, var(--fg) 25%, var(--bg));
    --_line:          var(--line, color-mix(in srgb, var(--fg) 30%, var(--bg)));
    --_arrow:         var(--accent, color-mix(in srgb, var(--fg) 50%, var(--bg)));
    --_node-fill:     var(--surface, color-mix(in srgb, var(--fg) 3%, var(--bg)));
    --_node-stroke:   var(--border, color-mix(in srgb, var(--fg) 20%, var(--bg)));
    --_group-fill:    var(--bg);
    --_group-hdr:     color-mix(in srgb, var(--fg) 5%, var(--bg));
    --_inner-stroke:  color-mix(in srgb, var(--fg) 12%, var(--bg));
    --_key-badge:     color-mix(in srgb, var(--fg) 10%, var(--bg));
  }
</style>
<defs>
  <marker id="arrowhead" markerWidth="8" markerHeight="4.8" refX="8" refY="2.4" orient="auto">
    <polygon points="0 0, 8 2.4, 0 4.8" fill="var(--_arrow)" />
  </marker>
  <marker id="arrowhead-start" markerWidth="8" markerHeight="4.8" refX="0" refY="2.4" orient="auto-start-reverse">
    <polygon points="8 0, 0 2.4, 8 4.8" fill="var(--_arrow)" />
  </marker>
</defs>
<rect x="1130.1174999999998" y="4" width="645.6000000000001" height="112" rx="0" ry="0" fill="var(--_group-fill)" stroke="var(--_node-stroke)" stroke-width="1" />
<rect x="1130.1174999999998" y="4" width="645.6000000000001" height="28" rx="0" ry="0" fill="var(--_group-hdr)" stroke="var(--_node-stroke)" stroke-width="1" />
<text x="1142.1174999999998" y="18" dy="0.35em" font-size="12" font-weight="600" fill="var(--_text-sec)">&quot;0 · Ingest&quot;</text>
<rect x="40" y="523" width="576.5" height="112" rx="0" ry="0" fill="var(--_group-fill)" stroke="var(--_node-stroke)" stroke-width="1" />
<rect x="40" y="523" width="576.5" height="28" rx="0" ry="0" fill="var(--_group-hdr)" stroke="var(--_node-stroke)" stroke-width="1" />
<text x="52" y="537" dy="0.35em" font-size="12" font-weight="600" fill="var(--_text-sec)">&quot;1 · Embed&quot;</text>
<rect x="NaN" y="NaN" width="0" height="36" rx="0" ry="0" fill="var(--_group-fill)" stroke="var(--_node-stroke)" stroke-width="1" />
<rect x="NaN" y="NaN" width="0" height="28" rx="0" ry="0" fill="var(--_group-hdr)" stroke="var(--_node-stroke)" stroke-width="1" />
<text x="NaN" y="NaN" dy="0.35em" font-size="12" font-weight="600" fill="var(--_text-sec)">&quot;2 · UMAP&quot;</text>
<rect x="1596.6500000000005" y="523" width="297.64999999999986" height="112" rx="0" ry="0" fill="var(--_group-fill)" stroke="var(--_node-stroke)" stroke-width="1" />
<rect x="1596.6500000000005" y="523" width="297.64999999999986" height="28" rx="0" ry="0" fill="var(--_group-hdr)" stroke="var(--_node-stroke)" stroke-width="1" />
<text x="1608.6500000000005" y="537" dy="0.35em" font-size="12" font-weight="600" fill="var(--_text-sec)">&quot;3 · Cluster&quot;</text>
<rect x="619.675" y="1025" width="347.7" height="112" rx="0" ry="0" fill="var(--_group-fill)" stroke="var(--_node-stroke)" stroke-width="1" />
<rect x="619.675" y="1025" width="347.7" height="28" rx="0" ry="0" fill="var(--_group-hdr)" stroke="var(--_node-stroke)" stroke-width="1" />
<text x="631.675" y="1039" dy="0.35em" font-size="12" font-weight="600" fill="var(--_text-sec)">&quot;4 · Toponymy Label&quot;</text>
<rect x="636.5" y="350" width="940.1500000000004" height="631" rx="0" ry="0" fill="var(--_group-fill)" stroke="var(--_node-stroke)" stroke-width="1" />
<rect x="636.5" y="350" width="940.1500000000004" height="28" rx="0" ry="0" fill="var(--_group-hdr)" stroke="var(--_node-stroke)" stroke-width="1" />
<text x="648.5" y="364" dy="0.35em" font-size="12" font-weight="600" fill="var(--_text-sec)">&quot;5 · Scope&quot;</text>
<rect x="1045.8850000000002" y="177" width="914.2275000000002" height="112" rx="0" ry="0" fill="var(--_group-fill)" stroke="var(--_node-stroke)" stroke-width="1" />
<rect x="1045.8850000000002" y="177" width="914.2275000000002" height="28" rx="0" ry="0" fill="var(--_group-hdr)" stroke="var(--_node-stroke)" stroke-width="1" />
<text x="1057.8850000000002" y="191" dy="0.35em" font-size="12" font-weight="600" fill="var(--_text-sec)">&quot;5b · Links Graph&quot;</text>
<rect x="987.375" y="1025" width="1090.0500000000002" height="424" rx="0" ry="0" fill="var(--_group-fill)" stroke="var(--_node-stroke)" stroke-width="1" />
<rect x="987.375" y="1025" width="1090.0500000000002" height="28" rx="0" ry="0" fill="var(--_group-hdr)" stroke="var(--_node-stroke)" stroke-width="1" />
<text x="999.375" y="1039" dy="0.35em" font-size="12" font-weight="600" fill="var(--_text-sec)">&quot;6 · Serve + Explore&quot;</text>
<polyline points="1268.2175000000002,96 1268.2175000000002,251 1274.5800000000004,251" fill="none" stroke="var(--_line)" stroke-width="0.75" marker-end="url(#arrowhead)" />
<polyline points="1481.5175,96 1481.5175,251 1506.7800000000002,251" fill="none" stroke="var(--_line)" stroke-width="0.75" marker-end="url(#arrowhead)" />
<polyline points="1666.2175000000002,96 1666.2175000000002,251 1506.7800000000002,251" fill="none" stroke="var(--_line)" stroke-width="0.75" marker-end="url(#arrowhead)" />
<polyline points="1390.6800000000003,269 1390.6800000000003,289 1134.9350000000002,289 1134.9350000000002,406" fill="none" stroke="var(--_line)" stroke-width="0.75" marker-end="url(#arrowhead)" />
<polyline points="1134.9350000000002,442 1134.9350000000002,462 697.6750000000001,462 697.6750000000001,597 594.5,597" fill="none" stroke="var(--_line)" stroke-width="0.75" stroke-dasharray="4 4" />
<polyline points="1134.9350000000002,442 1134.9350000000002,462 1027.4250000000002,462 1027.4250000000002,579" fill="none" stroke="var(--_line)" stroke-width="0.75" marker-end="url(#arrowhead)" />
<polyline points="1134.9350000000002,442 1134.9350000000002,462 1324.4700000000003,462 1324.4700000000003,597 1618.6500000000003,597" fill="none" stroke="var(--_line)" stroke-width="0.75" marker-end="url(#arrowhead)" />
<polyline points="1027.4250000000002,615 1027.4250000000002,635 1020.1349999999999,635 1020.1349999999999,752" fill="none" stroke="var(--_line)" stroke-width="0.75" marker-end="url(#arrowhead)" />
<polyline points="1745.4750000000004,615 1745.4750000000004,655 1489.7300000000005,655 1489.7300000000005,770 1111.2099999999998,770" fill="none" stroke="var(--_line)" stroke-width="0.75" marker-end="url(#arrowhead)" />
<polyline points="1020.1349999999999,788 1020.1349999999999,808 910.45,808 910.45,925" fill="none" stroke="var(--_line)" stroke-width="0.75" marker-end="url(#arrowhead)" />
<polyline points="910.45,961 910.45,981 793.525,981 793.525,1081" fill="none" stroke="var(--_line)" stroke-width="0.75" stroke-dasharray="4 4" />
<polyline points="910.45,961 910.45,981 1071.7875000000001,981 1071.7875000000001,1099 1286.0349999999999,1099" fill="none" stroke="var(--_line)" stroke-width="0.75" marker-end="url(#arrowhead)" />
<polyline points="1027.4250000000002,615 1027.4250000000002,635 1285.3000000000002,635 1285.3000000000002,1099 1286.0349999999999,1099" fill="none" stroke="var(--_line)" stroke-width="0.75" marker-end="url(#arrowhead)" />
<polyline points="1020.1349999999999,788 1020.1349999999999,808 1218.7625000000003,808 1218.7625000000003,1099 1286.0349999999999,1099" fill="none" stroke="var(--_line)" stroke-width="0.75" marker-end="url(#arrowhead)" />
<polyline points="1134.9350000000002,442 1134.9350000000002,462 1402.8100000000004,462 1402.8100000000004,1099 1439.585,1099" fill="none" stroke="var(--_line)" stroke-width="0.75" marker-end="url(#arrowhead)" />
<polyline points="1390.6800000000003,269 1390.6800000000003,289 1914.3000000000002,289 1914.3000000000002,1081" fill="none" stroke="var(--_line)" stroke-width="0.75" marker-end="url(#arrowhead)" />
<polyline points="1362.81,1117 1362.81,1255 1435.1925000000003,1255" fill="none" stroke="var(--_line)" stroke-width="0.75" marker-end="url(#arrowhead)" />
<polyline points="1914.3000000000002,1117 1914.3000000000002,1255 1688.8425000000004,1255" fill="none" stroke="var(--_line)" stroke-width="0.75" marker-end="url(#arrowhead)" />
<polyline points="1562.0175000000004,1273 1562.0175000000004,1393" fill="none" stroke="var(--_line)" stroke-width="0.75" marker-end="url(#arrowhead)" />
<rect x="1234.4775000000002" y="151" width="67.48" height="27" rx="4" ry="4" fill="var(--bg)" stroke="var(--_inner-stroke)" stroke-width="0.5" />
<text x="1268.2175000000002" y="164.5" text-anchor="middle" dy="0.35em" font-size="11" font-weight="400" fill="var(--_text-muted)">ls-ingest</text>
<rect x="1424.8975" y="151" width="113.24000000000001" height="27" rx="4" ry="4" fill="var(--bg)" stroke="var(--_inner-stroke)" stroke-width="0.5" />
<text x="1481.5175" y="164.5" text-anchor="middle" dy="0.35em" font-size="11" font-weight="400" fill="var(--_text-muted)">ls-twitter-import</text>
<rect x="1609.5975000000003" y="151" width="113.24000000000001" height="27" rx="4" ry="4" fill="var(--bg)" stroke="var(--_inner-stroke)" stroke-width="0.5" />
<text x="1666.2175000000002" y="164.5" text-anchor="middle" dy="0.35em" font-size="11" font-weight="400" fill="var(--_text-muted)">ls-twitter-import</text>
<rect x="1104.055" y="324" width="61.760000000000005" height="27" rx="4" ry="4" fill="var(--bg)" stroke="var(--_inner-stroke)" stroke-width="0.5" />
<text x="1134.9350000000002" y="337.5" text-anchor="middle" dy="0.35em" font-size="11" font-weight="400" fill="var(--_text-muted)">ls-embed</text>
<rect x="965.0850000000002" y="497" width="124.68" height="27" rx="4" ry="4" fill="var(--bg)" stroke="var(--_inner-stroke)" stroke-width="0.5" />
<text x="1027.4250000000002" y="510.5" text-anchor="middle" dy="0.35em" font-size="11" font-weight="400" fill="var(--_text-muted)">&quot;--purpose display&quot;</text>
<rect x="1262.1300000000003" y="497" width="124.68" height="27" rx="4" ry="4" fill="var(--bg)" stroke="var(--_inner-stroke)" stroke-width="0.5" />
<text x="1324.4700000000003" y="510.5" text-anchor="middle" dy="0.35em" font-size="11" font-weight="400" fill="var(--_text-muted)">&quot;--purpose cluster&quot;</text>
<rect x="983.5349999999999" y="670" width="73.2" height="27" rx="4" ry="4" fill="var(--bg)" stroke="var(--_inner-stroke)" stroke-width="0.5" />
<text x="1020.1349999999999" y="683.5" text-anchor="middle" dy="0.35em" font-size="11" font-weight="400" fill="var(--_text-muted)">ls-cluster</text>
<rect x="1418.8100000000004" y="670" width="141.84" height="27" rx="4" ry="4" fill="var(--bg)" stroke="var(--_inner-stroke)" stroke-width="0.5" />
<text x="1489.7300000000005" y="683.5" text-anchor="middle" dy="0.35em" font-size="11" font-weight="400" fill="var(--_text-muted)">&quot;--clustering_umap_id&quot;</text>
<rect x="859.5500000000001" y="843" width="101.8" height="27" rx="4" ry="4" fill="var(--bg)" stroke="var(--_inner-stroke)" stroke-width="0.5" />
<text x="910.45" y="856.5" text-anchor="middle" dy="0.35em" font-size="11" font-weight="400" fill="var(--_text-muted)">toponymy_labels</text>
<rect x="1849.1000000000001" y="670" width="130.4" height="27" rx="4" ry="4" fill="var(--bg)" stroke="var(--_inner-stroke)" stroke-width="0.5" />
<text x="1914.3000000000002" y="683.5" text-anchor="middle" dy="0.35em" font-size="11" font-weight="400" fill="var(--_text-muted)">ls-build-links-graph</text>
<rect x="1152.1175000000003" y="60" width="232.20000000000002" height="36" rx="0" ry="0" fill="var(--_node-fill)" stroke="var(--_node-stroke)" stroke-width="0.75" />
<rect x="1408.3174999999999" y="60" width="146.4" height="36" rx="0" ry="0" fill="var(--_node-fill)" stroke="var(--_node-stroke)" stroke-width="0.75" />
<rect x="1578.7175000000002" y="60" width="175" height="36" rx="0" ry="0" fill="var(--_node-fill)" stroke="var(--_node-stroke)" stroke-width="0.75" />
<rect x="1274.5800000000004" y="233" width="232.20000000000002" height="36" rx="0" ry="0" fill="var(--_node-fill)" stroke="var(--_node-stroke)" stroke-width="0.75" />
<rect x="1054.5850000000003" y="406" width="160.70000000000002" height="36" rx="0" ry="0" fill="var(--_node-fill)" stroke="var(--_node-stroke)" stroke-width="0.75" />
<rect x="62" y="579" width="532.5" height="36" rx="0" ry="0" fill="var(--_node-fill)" stroke="var(--_node-stroke)" stroke-width="0.75" />
<rect x="918.4750000000001" y="579" width="217.9" height="36" rx="0" ry="0" fill="var(--_node-fill)" stroke="var(--_node-stroke)" stroke-width="0.75" />
<rect x="1618.6500000000003" y="579" width="253.65" height="36" rx="0" ry="0" fill="var(--_node-fill)" stroke="var(--_node-stroke)" stroke-width="0.75" />
<rect x="929.0599999999998" y="752" width="182.15" height="36" rx="0" ry="0" fill="var(--_node-fill)" stroke="var(--_node-stroke)" stroke-width="0.75" />
<rect x="658.5" y="925" width="503.90000000000003" height="36" rx="0" ry="0" fill="var(--_node-fill)" stroke="var(--_node-stroke)" stroke-width="0.75" />
<rect x="641.675" y="1081" width="303.70000000000005" height="36" rx="0" ry="0" fill="var(--_node-fill)" stroke="var(--_node-stroke)" stroke-width="0.75" />
<rect x="1286.0349999999999" y="1081" width="153.55" height="36" rx="0" ry="0" fill="var(--_node-fill)" stroke="var(--_node-stroke)" stroke-width="0.75" />
<rect x="1773.1750000000002" y="1081" width="282.25" height="36" rx="0" ry="0" fill="var(--_node-fill)" stroke="var(--_node-stroke)" stroke-width="0.75" />
<rect x="1435.1925000000003" y="1237" width="253.65" height="36" rx="0" ry="0" fill="var(--_node-fill)" stroke="var(--_node-stroke)" stroke-width="0.75" />
<rect x="1485.2425000000003" y="1393" width="153.55" height="36" rx="0" ry="0" fill="var(--_node-fill)" stroke="var(--_node-stroke)" stroke-width="0.75" />
<text x="1268.2175000000002" y="78" text-anchor="middle" dy="0.35em" font-size="13" font-weight="500" fill="var(--_text)">&quot;CSV / Parquet\nJSON / XLSX&quot;</text>
<text x="1481.5175" y="78" text-anchor="middle" dy="0.35em" font-size="13" font-weight="500" fill="var(--_text)">&quot;X Archive .zip&quot;</text>
<text x="1666.2175000000002" y="78" text-anchor="middle" dy="0.35em" font-size="13" font-weight="500" fill="var(--_text)">&quot;Community\nArchive&quot;</text>
<text x="1390.6800000000003" y="251" text-anchor="middle" dy="0.35em" font-size="13" font-weight="500" fill="var(--_text)">&quot;input.parquet\n+ meta.json&quot;</text>
<text x="1134.9350000000002" y="424" text-anchor="middle" dy="0.35em" font-size="13" font-weight="500" fill="var(--_text)">&quot;embedding-NNN.h5&quot;</text>
<text x="328.25" y="597" text-anchor="middle" dy="0.35em" font-size="13" font-weight="500" fill="var(--_text)">&quot;Voyage 4 Lite · OpenAI\nHF Transformers · Cohere\nMistral · Together&quot;</text>
<text x="1027.4250000000002" y="597" text-anchor="middle" dy="0.35em" font-size="13" font-weight="500" fill="var(--_text)">&quot;umap-NNN.parquet\n2D x,y&quot;</text>
<text x="1745.4750000000004" y="597" text-anchor="middle" dy="0.35em" font-size="13" font-weight="500" fill="var(--_text)">&quot;umap-NNN.parquet\nkD manifold&quot;</text>
<text x="1020.1349999999999" y="770" text-anchor="middle" dy="0.35em" font-size="13" font-weight="500" fill="var(--_text)">&quot;cluster-NNN.parquet&quot;</text>
<text x="910.45" y="943" text-anchor="middle" dy="0.35em" font-size="13" font-weight="500" fill="var(--_text)">&quot;Hierarchical labels\naudit + sibling context\nadaptive exemplars&quot;</text>
<text x="793.525" y="1099" text-anchor="middle" dy="0.35em" font-size="13" font-weight="500" fill="var(--_text)">&quot;GPT-5 mini · Claude\nGemini · Cohere&quot;</text>
<text x="1362.81" y="1099" text-anchor="middle" dy="0.35em" font-size="13" font-weight="500" fill="var(--_text)">&quot;scopes-NNN.json&quot;</text>
<text x="1914.3000000000002" y="1099" text-anchor="middle" dy="0.35em" font-size="13" font-weight="500" fill="var(--_text)">&quot;edges.parquet\nnode_stats.parquet&quot;</text>
<text x="1562.0175000000004" y="1255" text-anchor="middle" dy="0.35em" font-size="13" font-weight="500" fill="var(--_text)">&quot;Flask Studio\nHono Production&quot;</text>
<text x="1562.0175000000004" y="1411" text-anchor="middle" dy="0.35em" font-size="13" font-weight="500" fill="var(--_text)">&quot;React + Deck.GL&quot;</text>
</svg>