<svg xmlns="http://www.w3.org/2000/svg" viewBox="0 0 5553.37 344" width="5553.37" height="344" style="--bg:#1a1b26;--fg:#a9b1d6;--line:#3d59a1;--accent:#7aa2f7;--muted:#565f89;background:var(--bg)">
<style>
  @import url('https://fonts.googleapis.com/css2?family=Inter:wght@400;500;600;700&amp;display=swap');
  text { font-family: 'Inter', system-ui, sans-serif; }
  svg {
    /* Derived from --bg and --fg (overridable via --line, --accent, etc.) */
    --_text:          var(--fg);
    --_text-sec:      var(--muted, color-mix(in srgb, var(--fg) 60%, var(--bg)));
    --_text-muted:    var(--muted, color-mix(in srgb, var(--fg) 40%, var(--bg)));
    --_text-faint:    color-mix(in srgb, var(--fg) 25%, var(--bg));
    --_line:          var(--line, color-mix(in srgb, var(--fg) 30%, var(--bg)));
    --_arrow:         var(--accent, color-mix(in srgb, var(--fg) 50%, var(--bg)));
    --_node-fill:     var(--surface, color-mix(in srgb, var(--fg) 3%, var(--bg)));
    --_node-stroke:   var(--border, color-mix(in srgb, var(--fg) 20%, var(--bg)));
    --_group-fill:    var(--bg);
    --_group-hdr:     color-mix(in srgb, var(--fg) 5%, var(--bg));
    --_inner-stroke:  color-mix(in srgb, var(--fg) 12%, var(--bg));
    --_key-badge:     color-mix(in srgb, var(--fg) 10%, var(--bg));
  }
</style>
<defs>
  <marker id="arrowhead" markerWidth="8" markerHeight="4.8" refX="8" refY="2.4" orient="auto">
    <polygon points="0 0, 8 2.4, 0 4.8" fill="var(--_arrow)" />
  </marker>
  <marker id="arrowhead-start" markerWidth="8" markerHeight="4.8" refX="0" refY="2.4" orient="auto-start-reverse">
    <polygon points="8 0, 0 2.4, 8 4.8" fill="var(--_arrow)" />
  </marker>
</defs>
<rect x="40" y="48" width="1635.0500000000002" height="248" rx="0" ry="0" fill="var(--_group-fill)" stroke="var(--_node-stroke)" stroke-width="1" />
<rect x="40" y="48" width="1635.0500000000002" height="28" rx="0" ry="0" fill="var(--_group-hdr)" stroke="var(--_node-stroke)" stroke-width="1" />
<text x="52" y="62" dy="0.35em" font-size="12" font-weight="600" fill="var(--_text-sec)">&quot;Frontend · React + Vite&quot;</text>
<rect x="1715.0500000000002" y="124" width="1424.8500000000001" height="96" rx="0" ry="0" fill="var(--_group-fill)" stroke="var(--_node-stroke)" stroke-width="1" />
<rect x="1715.0500000000002" y="124" width="1424.8500000000001" height="28" rx="0" ry="0" fill="var(--_group-hdr)" stroke="var(--_node-stroke)" stroke-width="1" />
<text x="1727.0500000000002" y="138" dy="0.35em" font-size="12" font-weight="600" fill="var(--_text-sec)">&quot;API Clients&quot;</text>
<rect x="3250.8200000000006" y="40" width="1223.45" height="96" rx="0" ry="0" fill="var(--_group-fill)" stroke="var(--_node-stroke)" stroke-width="1" />
<rect x="3250.8200000000006" y="40" width="1223.45" height="28" rx="0" ry="0" fill="var(--_group-hdr)" stroke="var(--_node-stroke)" stroke-width="1" />
<text x="3262.8200000000006" y="54" dy="0.35em" font-size="12" font-weight="600" fill="var(--_text-sec)">&quot;Python Studio · Flask :5001&quot;</text>
<rect x="3271.0700000000006" y="208" width="1182.95" height="96" rx="0" ry="0" fill="var(--_group-fill)" stroke="var(--_node-stroke)" stroke-width="1" />
<rect x="3271.0700000000006" y="208" width="1182.95" height="28" rx="0" ry="0" fill="var(--_group-hdr)" stroke="var(--_node-stroke)" stroke-width="1" />
<text x="3283.0700000000006" y="222" dy="0.35em" font-size="12" font-weight="600" fill="var(--_text-sec)">&quot;Production API · Hono :3000&quot;</text>
<rect x="3301.4700000000003" y="124" width="1122.15" height="96" rx="0" ry="0" fill="var(--_group-fill)" stroke="var(--_node-stroke)" stroke-width="1" />
<rect x="3301.4700000000003" y="124" width="1122.15" height="28" rx="0" ry="0" fill="var(--_group-hdr)" stroke="var(--_node-stroke)" stroke-width="1" />
<text x="3313.4700000000003" y="138" dy="0.35em" font-size="12" font-weight="600" fill="var(--_text-sec)">&quot;Python Pipeline · CLI&quot;</text>
<rect x="4579.47" y="124" width="933.9" height="96" rx="0" ry="0" fill="var(--_group-fill)" stroke="var(--_node-stroke)" stroke-width="1" />
<rect x="4579.47" y="124" width="933.9" height="28" rx="0" ry="0" fill="var(--_group-hdr)" stroke="var(--_node-stroke)" stroke-width="1" />
<text x="4591.47" y="138" dy="0.35em" font-size="12" font-weight="600" fill="var(--_text-sec)">&quot;Flat File Storage&quot;</text>
<polyline points="1675.0500000000002,190 1715.0500000000002,190" fill="none" stroke="var(--_line)" stroke-width="0.75" marker-end="url(#arrowhead)" />
<polyline points="3139.9000000000005,190 3195.3600000000006,190 3195.3600000000006,106 3250.8200000000006,106" fill="none" stroke="var(--_line)" stroke-width="0.75" marker-end="url(#arrowhead)" />
<polyline points="3139.9000000000005,190 3195.3600000000006,190 3195.3600000000006,274 3271.0700000000006,274" fill="none" stroke="var(--_line)" stroke-width="0.75" marker-end="url(#arrowhead)" />
<polyline points="4474.27,106 5046.42,106 5046.42,160" fill="none" stroke="var(--_line)" stroke-width="0.75" marker-end="url(#arrowhead)" />
<polyline points="4423.620000000001,190 4579.47,190" fill="none" stroke="var(--_line)" stroke-width="0.75" marker-end="url(#arrowhead)" />
<polyline points="4454.02,274 5046.42,274 5046.42,220" fill="none" stroke="var(--_line)" stroke-width="0.75" marker-end="url(#arrowhead)" />
<polyline points="747.6625000000001,132 747.6625000000001,152 446.7750000000001,152 446.7750000000001,172" fill="none" stroke="var(--_line)" stroke-width="0.75" marker-end="url(#arrowhead)" />
<polyline points="747.6625000000001,132 747.6625000000001,152 1082.5125000000003,152 1082.5125000000003,172" fill="none" stroke="var(--_line)" stroke-width="0.75" marker-end="url(#arrowhead)" />
<polyline points="446.7750000000001,208 446.7750000000001,228 247.9000000000001,228 247.9000000000001,266 56.000000000000085,266" fill="none" stroke="var(--_line)" stroke-width="0.75" marker-end="url(#arrowhead)" />
<polyline points="1082.5125000000003,208 1082.5125000000003,228 436.7750000000001,228 436.7750000000001,266 459.80000000000007,266" fill="none" stroke="var(--_line)" stroke-width="0.75" marker-end="url(#arrowhead)" />
<polyline points="446.7750000000001,208 446.7750000000001,228 645.6500000000001,228 645.6500000000001,248" fill="none" stroke="var(--_line)" stroke-width="0.75" marker-end="url(#arrowhead)" />
<polyline points="1082.5125000000003,208 1082.5125000000003,228 937.6000000000001,228 937.6000000000001,248" fill="none" stroke="var(--_line)" stroke-width="0.75" marker-end="url(#arrowhead)" />
<polyline points="1082.5125000000003,208 1082.5125000000003,228 1247.4250000000002,228 1247.4250000000002,248" fill="none" stroke="var(--_line)" stroke-width="0.75" marker-end="url(#arrowhead)" />
<polyline points="1082.5125000000003,208 1082.5125000000003,228 1550.1000000000001,228 1550.1000000000001,248" fill="none" stroke="var(--_line)" stroke-width="0.75" marker-end="url(#arrowhead)" />
<rect x="3155.9000000000005" y="92.5" width="78.92" height="27" rx="4" ry="4" fill="var(--bg)" stroke="var(--_inner-stroke)" stroke-width="0.5" />
<text x="3195.3600000000006" y="106" text-anchor="middle" dy="0.35em" font-size="11" font-weight="400" fill="var(--_text-muted)">studio mode</text>
<rect x="3158.7600000000007" y="260.5" width="73.2" height="27" rx="4" ry="4" fill="var(--bg)" stroke="var(--_inner-stroke)" stroke-width="0.5" />
<text x="3195.3600000000006" y="274" text-anchor="middle" dy="0.35em" font-size="11" font-weight="400" fill="var(--_text-muted)">production</text>
<rect x="4490.27" y="260.5" width="73.2" height="27" rx="4" ry="4" fill="var(--bg)" stroke="var(--_inner-stroke)" stroke-width="0.5" />
<text x="4526.870000000001" y="274" text-anchor="middle" dy="0.35em" font-size="11" font-weight="400" fill="var(--_text-muted)">&quot;R2 / CDN&quot;</text>
<rect x="638.7125000000001" y="96" width="217.9" height="36" rx="0" ry="0" fill="var(--_node-fill)" stroke="var(--_node-stroke)" stroke-width="0.75" />
<rect x="230.57500000000007" y="172" width="432.40000000000003" height="36" rx="0" ry="0" fill="var(--_node-fill)" stroke="var(--_node-stroke)" stroke-width="0.75" />
<rect x="884.1875000000002" y="172" width="396.65000000000003" height="36" rx="0" ry="0" fill="var(--_node-fill)" stroke="var(--_node-stroke)" stroke-width="0.75" />
<rect x="56.000000000000085" y="248" width="403.8" height="36" rx="0" ry="0" fill="var(--_node-fill)" stroke="var(--_node-stroke)" stroke-width="0.75" />
<rect x="493.80000000000007" y="248" width="303.70000000000005" height="36" rx="0" ry="0" fill="var(--_node-fill)" stroke="var(--_node-stroke)" stroke-width="0.75" />
<rect x="821.5000000000001" y="248" width="232.20000000000002" height="36" rx="0" ry="0" fill="var(--_node-fill)" stroke="var(--_node-stroke)" stroke-width="0.75" />
<rect x="1077.7000000000003" y="248" width="339.45000000000005" height="36" rx="0" ry="0" fill="var(--_node-fill)" stroke="var(--_node-stroke)" stroke-width="0.75" />
<rect x="1441.15" y="248" width="217.9" height="36" rx="0" ry="0" fill="var(--_node-fill)" stroke="var(--_node-stroke)" stroke-width="0.75" />
<rect x="1731.0500000000002" y="172" width="289.40000000000003" height="36" rx="0" ry="0" fill="var(--_node-fill)" stroke="var(--_node-stroke)" stroke-width="0.75" />
<rect x="2044.4500000000003" y="172" width="275.1" height="36" rx="0" ry="0" fill="var(--_node-fill)" stroke="var(--_node-stroke)" stroke-width="0.75" />
<rect x="2343.55" y="172" width="267.95000000000005" height="36" rx="0" ry="0" fill="var(--_node-fill)" stroke="var(--_node-stroke)" stroke-width="0.75" />
<rect x="2635.5000000000005" y="172" width="225.05" height="36" rx="0" ry="0" fill="var(--_node-fill)" stroke="var(--_node-stroke)" stroke-width="0.75" />
<rect x="2884.55" y="172" width="239.35000000000002" height="36" rx="0" ry="0" fill="var(--_node-fill)" stroke="var(--_node-stroke)" stroke-width="0.75" />
<rect x="3266.8200000000006" y="88" width="232.20000000000002" height="36" rx="0" ry="0" fill="var(--_node-fill)" stroke="var(--_node-stroke)" stroke-width="0.75" />
<rect x="3523.0200000000004" y="88" width="232.20000000000002" height="36" rx="0" ry="0" fill="var(--_node-fill)" stroke="var(--_node-stroke)" stroke-width="0.75" />
<rect x="3779.2200000000003" y="88" width="217.9" height="36" rx="0" ry="0" fill="var(--_node-fill)" stroke="var(--_node-stroke)" stroke-width="0.75" />
<rect x="4021.120000000001" y="88" width="182.15" height="36" rx="0" ry="0" fill="var(--_node-fill)" stroke="var(--_node-stroke)" stroke-width="0.75" />
<rect x="4227.27" y="88" width="96.35000000000001" height="36" rx="0" ry="0" fill="var(--_node-fill)" stroke="var(--_node-stroke)" stroke-width="0.75" />
<rect x="4347.620000000001" y="88" width="110.65" height="36" rx="0" ry="0" fill="var(--_node-fill)" stroke="var(--_node-stroke)" stroke-width="0.75" />
<rect x="3287.0700000000006" y="256" width="289.40000000000003" height="36" rx="0" ry="0" fill="var(--_node-fill)" stroke="var(--_node-stroke)" stroke-width="0.75" />
<rect x="3600.4700000000007" y="256" width="346.6" height="36" rx="0" ry="0" fill="var(--_node-fill)" stroke="var(--_node-stroke)" stroke-width="0.75" />
<rect x="3971.0700000000006" y="256" width="203.60000000000002" height="36" rx="0" ry="0" fill="var(--_node-fill)" stroke="var(--_node-stroke)" stroke-width="0.75" />
<rect x="4198.670000000001" y="256" width="239.35000000000002" height="36" rx="0" ry="0" fill="var(--_node-fill)" stroke="var(--_node-stroke)" stroke-width="0.75" />
<rect x="3317.4700000000003" y="172" width="110.65" height="36" rx="0" ry="0" fill="var(--_node-fill)" stroke="var(--_node-stroke)" stroke-width="0.75" />
<rect x="3452.1200000000003" y="172" width="103.5" height="36" rx="0" ry="0" fill="var(--_node-fill)" stroke="var(--_node-stroke)" stroke-width="0.75" />
<rect x="3579.6200000000003" y="172" width="96.35000000000001" height="36" rx="0" ry="0" fill="var(--_node-fill)" stroke="var(--_node-stroke)" stroke-width="0.75" />
<rect x="3699.9700000000003" y="172" width="117.80000000000001" height="36" rx="0" ry="0" fill="var(--_node-fill)" stroke="var(--_node-stroke)" stroke-width="0.75" />
<rect x="3841.7700000000004" y="172" width="225.05" height="36" rx="0" ry="0" fill="var(--_node-fill)" stroke="var(--_node-stroke)" stroke-width="0.75" />
<rect x="4090.82" y="172" width="103.5" height="36" rx="0" ry="0" fill="var(--_node-fill)" stroke="var(--_node-stroke)" stroke-width="0.75" />
<rect x="4218.320000000001" y="172" width="189.3" height="36" rx="0" ry="0" fill="var(--_node-fill)" stroke="var(--_node-stroke)" stroke-width="0.75" />
<rect x="4595.47" y="172" width="339.45000000000005" height="36" rx="0" ry="0" fill="var(--_node-fill)" stroke="var(--_node-stroke)" stroke-width="0.75" />
<rect x="4958.92" y="172" width="203.60000000000002" height="36" rx="0" ry="0" fill="var(--_node-fill)" stroke="var(--_node-stroke)" stroke-width="0.75" />
<rect x="5186.52" y="172" width="310.85" height="36" rx="0" ry="0" fill="var(--_node-fill)" stroke="var(--_node-stroke)" stroke-width="0.75" />
<text x="747.6625000000001" y="114" text-anchor="middle" dy="0.35em" font-size="13" font-weight="500" fill="var(--_text)">&quot;App.jsx\nRouter + Config&quot;</text>
<text x="446.7750000000001" y="190" text-anchor="middle" dy="0.35em" font-size="13" font-weight="500" fill="var(--_text)">&quot;ScopeContext\nscopeRows · clusterMap\nclusterHierarchy&quot;</text>
<text x="1082.5125000000003" y="190" text-anchor="middle" dy="0.35em" font-size="13" font-weight="500" fill="var(--_text)">&quot;FilterContext\ncluster · search\nfeature · column&quot;</text>
<text x="257.9000000000001" y="266" text-anchor="middle" dy="0.35em" font-size="13" font-weight="500" fill="var(--_text)">&quot;VisualizationPane\nDeck.GL Scatter\nHulls · Labels&quot;</text>
<text x="645.6500000000001" y="266" text-anchor="middle" dy="0.35em" font-size="13" font-weight="500" fill="var(--_text)">&quot;TopicTree\nHierarchical\ncluster nav&quot;</text>
<text x="937.6000000000001" y="266" text-anchor="middle" dy="0.35em" font-size="13" font-weight="500" fill="var(--_text)">&quot;TweetFeed\nPaginated cards&quot;</text>
<text x="1247.4250000000002" y="266" text-anchor="middle" dy="0.35em" font-size="13" font-weight="500" fill="var(--_text)">&quot;FeedCarousel\nMulti-column\nexpanded view&quot;</text>
<text x="1550.1000000000001" y="266" text-anchor="middle" dy="0.35em" font-size="13" font-weight="500" fill="var(--_text)">&quot;ThreadView\nReply chains&quot;</text>
<text x="1875.7500000000002" y="190" text-anchor="middle" dy="0.35em" font-size="13" font-weight="500" fill="var(--_text)">&quot;catalogClient\nscopes · embeddings&quot;</text>
<text x="2182.0000000000005" y="190" text-anchor="middle" dy="0.35em" font-size="13" font-weight="500" fill="var(--_text)">&quot;viewClient\nscope rows · parquet&quot;</text>
<text x="2477.525" y="190" text-anchor="middle" dy="0.35em" font-size="13" font-weight="500" fill="var(--_text)">&quot;graphClient\nedges · node stats&quot;</text>
<text x="2748.0250000000005" y="190" text-anchor="middle" dy="0.35em" font-size="13" font-weight="500" fill="var(--_text)">&quot;queryClient\nrow fetching&quot;</text>
<text x="3004.2250000000004" y="190" text-anchor="middle" dy="0.35em" font-size="13" font-weight="500" fill="var(--_text)">&quot;searchClient\nNN · features&quot;</text>
<text x="3382.9200000000005" y="106" text-anchor="middle" dy="0.35em" font-size="13" font-weight="500" fill="var(--_text)">&quot;app.py\nblueprints + modes&quot;</text>
<text x="3639.1200000000003" y="106" text-anchor="middle" dy="0.35em" font-size="13" font-weight="500" fill="var(--_text)">&quot;jobs.py\nsubprocess runner&quot;</text>
<text x="3888.17" y="106" text-anchor="middle" dy="0.35em" font-size="13" font-weight="500" fill="var(--_text)">&quot;datasets.py\nCRUD + meta&quot;</text>
<text x="4112.195000000001" y="106" text-anchor="middle" dy="0.35em" font-size="13" font-weight="500" fill="var(--_text)">&quot;search.py\nlocal NN&quot;</text>
<text x="4275.445000000001" y="106" text-anchor="middle" dy="0.35em" font-size="13" font-weight="500" fill="var(--_text)">&quot;tags.py&quot;</text>
<text x="4402.945000000001" y="106" text-anchor="middle" dy="0.35em" font-size="13" font-weight="500" fill="var(--_text)">&quot;models.py&quot;</text>
<text x="3431.7700000000004" y="274" text-anchor="middle" dy="0.35em" font-size="13" font-weight="500" fill="var(--_text)">&quot;data.ts + catalog.ts\nR2/CDN proxy&quot;</text>
<text x="3773.770000000001" y="274" text-anchor="middle" dy="0.35em" font-size="13" font-weight="500" fill="var(--_text)">&quot;search.ts\nLanceDB Cloud +\nVoyageAI embed&quot;</text>
<text x="4072.870000000001" y="274" text-anchor="middle" dy="0.35em" font-size="13" font-weight="500" fill="var(--_text)">&quot;graph.ts\nedge queries&quot;</text>
<text x="4318.345000000001" y="274" text-anchor="middle" dy="0.35em" font-size="13" font-weight="500" fill="var(--_text)">&quot;resolve-url.ts\nt.co unwrap&quot;</text>
<text x="3372.795" y="190" text-anchor="middle" dy="0.35em" font-size="13" font-weight="500" fill="var(--_text)">&quot;ls-ingest&quot;</text>
<text x="3503.8700000000003" y="190" text-anchor="middle" dy="0.35em" font-size="13" font-weight="500" fill="var(--_text)">&quot;ls-embed&quot;</text>
<text x="3627.7950000000005" y="190" text-anchor="middle" dy="0.35em" font-size="13" font-weight="500" fill="var(--_text)">&quot;ls-umap&quot;</text>
<text x="3758.8700000000003" y="190" text-anchor="middle" dy="0.35em" font-size="13" font-weight="500" fill="var(--_text)">&quot;ls-cluster&quot;</text>
<text x="3954.2950000000005" y="190" text-anchor="middle" dy="0.35em" font-size="13" font-weight="500" fill="var(--_text)">&quot;ls-label\ntoponymy_labels&quot;</text>
<text x="4142.57" y="190" text-anchor="middle" dy="0.35em" font-size="13" font-weight="500" fill="var(--_text)">&quot;ls-scope&quot;</text>
<text x="4312.97" y="190" text-anchor="middle" dy="0.35em" font-size="13" font-weight="500" fill="var(--_text)">&quot;ls-build-links-graph&quot;</text>
<text x="4765.195000000001" y="190" text-anchor="middle" dy="0.35em" font-size="13" font-weight="500" fill="var(--_text)">&quot;Parquet\ninput · umaps\nclusters · scopes&quot;</text>
<text x="5060.72" y="190" text-anchor="middle" dy="0.35em" font-size="13" font-weight="500" fill="var(--_text)">&quot;HDF5\nembeddings · SAE&quot;</text>
<text x="5341.945000000001" y="190" text-anchor="middle" dy="0.35em" font-size="13" font-weight="500" fill="var(--_text)">&quot;JSON\nmeta · scope config\njob status&quot;</text>
</svg>